<?xml version="1.0" encoding="utf-8" standalone="no"?>
<!DOCTYPE svg PUBLIC "-//W3C//DTD SVG 1.1//EN"
  "http://www.w3.org/Graphics/SVG/1.1/DTD/svg11.dtd">
<!-- Created with matplotlib (https://matplotlib.org/) -->
<svg height="360pt" version="1.1" viewBox="0 0 1296 360" width="1296pt" xmlns="http://www.w3.org/2000/svg" xmlns:xlink="http://www.w3.org/1999/xlink">
 <defs>
  <style type="text/css">
*{stroke-linecap:butt;stroke-linejoin:round;}
  </style>
 </defs>
 <g id="figure_1">
  <g id="patch_1">
   <path d="M 0 360 
L 1296 360 
L 1296 0 
L 0 0 
z
" style="fill:#ffffff;"/>
  </g>
  <g id="axes_1">
   <g id="patch_2">
    <path d="M 162 315 
L 1166.4 315 
L 1166.4 43.2 
L 162 43.2 
z
" style="fill:#ffffff;"/>
   </g>
   <g id="PolyCollection_1">
    <path clip-path="url(#p2c7c4bd051)" d="M 207.654545 314.852036 
L 207.654545 315 
L 216.877686 315 
L 226.100826 315 
L 235.323967 315 
L 244.547107 315 
L 253.770248 315 
L 262.993388 315 
L 272.216529 315 
L 281.439669 315 
L 290.66281 315 
L 299.88595 315 
L 309.109091 315 
L 318.332231 315 
L 327.555372 315 
L 336.778512 315 
L 346.001653 315 
L 355.224793 315 
L 364.447934 315 
L 373.671074 315 
L 382.894215 315 
L 392.117355 315 
L 401.340496 315 
L 410.563636 315 
L 419.786777 315 
L 429.009917 315 
L 438.233058 315 
L 447.456198 315 
L 456.679339 315 
L 465.902479 315 
L 475.12562 315 
L 484.34876 315 
L 493.571901 315 
L 502.795041 315 
L 512.018182 315 
L 521.241322 315 
L 530.464463 315 
L 539.687603 315 
L 548.910744 315 
L 558.133884 315 
L 567.357025 315 
L 576.580165 315 
L 585.803306 315 
L 595.026446 315 
L 604.249587 315 
L 613.472727 315 
L 622.695868 315 
L 631.919008 315 
L 641.142149 315 
L 650.365289 315 
L 659.58843 315 
L 668.81157 315 
L 678.034711 315 
L 687.257851 315 
L 696.480992 315 
L 705.704132 315 
L 714.927273 315 
L 724.150413 315 
L 733.373554 315 
L 742.596694 315 
L 751.819835 315 
L 761.042975 315 
L 770.266116 315 
L 779.489256 315 
L 788.712397 315 
L 797.935537 315 
L 807.158678 315 
L 816.381818 315 
L 825.604959 315 
L 834.828099 315 
L 844.05124 315 
L 853.27438 315 
L 862.497521 315 
L 871.720661 315 
L 880.943802 315 
L 890.166942 315 
L 899.390083 315 
L 908.613223 315 
L 917.836364 315 
L 927.059504 315 
L 936.282645 315 
L 945.505785 315 
L 954.728926 315 
L 963.952066 315 
L 973.175207 315 
L 982.398347 315 
L 991.621488 315 
L 1000.844628 315 
L 1010.067769 315 
L 1019.290909 315 
L 1028.51405 315 
L 1037.73719 315 
L 1046.960331 315 
L 1056.183471 315 
L 1065.406612 315 
L 1074.629752 315 
L 1083.852893 315 
L 1093.076033 315 
L 1102.299174 315 
L 1111.522314 315 
L 1120.745455 315 
L 1120.745455 314.986941 
L 1120.745455 314.986941 
L 1111.522314 314.972205 
L 1102.299174 314.943795 
L 1093.076033 314.891827 
L 1083.852893 314.80142 
L 1074.629752 314.651483 
L 1065.406612 314.413822 
L 1056.183471 314.052944 
L 1046.960331 313.526995 
L 1037.73719 312.790424 
L 1028.51405 311.798949 
L 1019.290909 310.517113 
L 1010.067769 308.927858 
L 1000.844628 307.042239 
L 991.621488 304.906053 
L 982.398347 302.599718 
L 973.175207 300.229011 
L 963.952066 297.907222 
L 954.728926 295.733003 
L 945.505785 293.770669 
L 936.282645 292.039446 
L 927.059504 290.514788 
L 917.836364 289.139865 
L 908.613223 287.841237 
L 899.390083 286.541763 
L 890.166942 285.166454 
L 880.943802 283.64169 
L 871.720661 281.892197 
L 862.497521 279.841166 
L 853.27438 277.416588 
L 844.05124 274.562918 
L 834.828099 271.25409 
L 825.604959 267.50318 
L 816.381818 263.365458 
L 807.158678 258.933553 
L 797.935537 254.324606 
L 788.712397 249.659711 
L 779.489256 245.036835 
L 770.266116 240.501321 
L 761.042975 236.022476 
L 751.819835 231.488076 
L 742.596694 226.727163 
L 733.373554 221.562812 
L 724.150413 215.882674 
L 714.927273 209.702205 
L 705.704132 203.191728 
L 696.480992 196.648729 
L 687.257851 190.418494 
L 678.034711 184.789756 
L 668.81157 179.905035 
L 659.58843 175.720399 
L 650.365289 172.028256 
L 641.142149 168.53006 
L 631.919008 164.926692 
L 622.695868 160.991206 
L 613.472727 156.601373 
L 604.249587 151.73008 
L 595.026446 146.409636 
L 585.803306 140.693931 
L 576.580165 134.6383 
L 567.357025 128.304603 
L 558.133884 121.784755 
L 548.910744 115.226003 
L 539.687603 108.839592 
L 530.464463 102.881564 
L 521.241322 97.607331 
L 512.018182 93.214838 
L 502.795041 89.798604 
L 493.571901 87.334716 
L 484.34876 85.705173 
L 475.12562 84.753513 
L 465.902479 84.34987 
L 456.679339 84.439465 
L 447.456198 85.056642 
L 438.233058 86.303652 
L 429.009917 88.311094 
L 419.786777 91.206132 
L 410.563636 95.109805 
L 401.340496 100.167194 
L 392.117355 106.592114 
L 382.894215 114.69245 
L 373.671074 124.842938 
L 364.447934 137.391723 
L 355.224793 152.518938 
L 346.001653 170.095303 
L 336.778512 189.600401 
L 327.555372 210.145021 
L 318.332231 230.604165 
L 309.109091 249.823861 
L 299.88595 266.836433 
L 290.66281 281.018322 
L 281.439669 292.150437 
L 272.216529 300.379075 
L 262.993388 306.107769 
L 253.770248 309.864836 
L 244.547107 312.186491 
L 235.323967 313.53852 
L 226.100826 314.28066 
L 216.877686 314.664686 
L 207.654545 314.852036 
z
" style="fill:#1f77b4;fill-opacity:0.25;"/>
   </g>
   <g id="PolyCollection_2">
    <path clip-path="url(#p2c7c4bd051)" d="M 231.176025 314.829575 
L 231.176025 315 
L 237.849796 315 
L 244.523566 315 
L 251.197337 315 
L 257.871107 315 
L 264.544878 315 
L 271.218649 315 
L 277.892419 315 
L 284.56619 315 
L 291.23996 315 
L 297.913731 315 
L 304.587501 315 
L 311.261272 315 
L 317.935043 315 
L 324.608813 315 
L 331.282584 315 
L 337.956354 315 
L 344.630125 315 
L 351.303896 315 
L 357.977666 315 
L 364.651437 315 
L 371.325207 315 
L 377.998978 315 
L 384.672748 315 
L 391.346519 315 
L 398.02029 315 
L 404.69406 315 
L 411.367831 315 
L 418.041601 315 
L 424.715372 315 
L 431.389142 315 
L 438.062913 315 
L 444.736684 315 
L 451.410454 315 
L 458.084225 315 
L 464.757995 315 
L 471.431766 315 
L 478.105536 315 
L 484.779307 315 
L 491.453078 315 
L 498.126848 315 
L 504.800619 315 
L 511.474389 315 
L 518.14816 315 
L 524.821931 315 
L 531.495701 315 
L 538.169472 315 
L 544.843242 315 
L 551.517013 315 
L 558.190783 315 
L 564.864554 315 
L 571.538325 315 
L 578.212095 315 
L 584.885866 315 
L 591.559636 315 
L 598.233407 315 
L 604.907177 315 
L 611.580948 315 
L 618.254719 315 
L 624.928489 315 
L 631.60226 315 
L 638.27603 315 
L 644.949801 315 
L 651.623571 315 
L 658.297342 315 
L 664.971113 315 
L 671.644883 315 
L 678.318654 315 
L 684.992424 315 
L 691.666195 315 
L 698.339966 315 
L 705.013736 315 
L 711.687507 315 
L 718.361277 315 
L 725.035048 315 
L 731.708818 315 
L 738.382589 315 
L 745.05636 315 
L 751.73013 315 
L 758.403901 315 
L 765.077671 315 
L 771.751442 315 
L 778.425212 315 
L 785.098983 315 
L 791.772754 315 
L 798.446524 315 
L 805.120295 315 
L 811.794065 315 
L 818.467836 315 
L 825.141607 315 
L 831.815377 315 
L 838.489148 315 
L 845.162918 315 
L 851.836689 315 
L 858.510459 315 
L 865.18423 315 
L 871.858001 315 
L 878.531771 315 
L 885.205542 315 
L 891.879312 315 
L 891.879312 314.964888 
L 891.879312 314.964888 
L 885.205542 314.927115 
L 878.531771 314.855933 
L 871.858001 314.728614 
L 865.18423 314.51235 
L 858.510459 314.163253 
L 851.836689 313.627296 
L 845.162918 312.8439 
L 838.489148 311.752349 
L 831.815377 310.300267 
L 825.141607 308.452468 
L 818.467836 306.197939 
L 811.794065 303.552844 
L 805.120295 300.558405 
L 798.446524 297.273853 
L 791.772754 293.765928 
L 785.098983 290.097078 
L 778.425212 286.314448 
L 771.751442 282.441368 
L 765.077671 278.472617 
L 758.403901 274.374676 
L 751.73013 270.091881 
L 745.05636 265.558465 
L 738.382589 260.714531 
L 731.708818 255.521651 
L 725.035048 249.97251 
L 718.361277 244.0901 
L 711.687507 237.915831 
L 705.013736 231.490992 
L 698.339966 224.839744 
L 691.666195 217.961782 
L 684.992424 210.838679 
L 678.318654 203.451592 
L 671.644883 195.802914 
L 664.971113 187.933166 
L 658.297342 179.927347 
L 651.623571 171.909702 
L 644.949801 164.029751 
L 638.27603 156.443543 
L 631.60226 149.293188 
L 624.928489 142.686708 
L 618.254719 136.68048 
L 611.580948 131.267651 
L 604.907177 126.376193 
L 598.233407 121.87846 
L 591.559636 117.610771 
L 584.885866 113.398607 
L 578.212095 109.082203 
L 571.538325 104.538704 
L 564.864554 99.698983 
L 558.190783 94.558107 
L 551.517013 89.178168 
L 544.843242 83.68226 
L 538.169472 78.240061 
L 531.495701 73.048476 
L 524.821931 68.312484 
L 518.14816 64.229675 
L 511.474389 60.976974 
L 504.800619 58.693445 
L 498.126848 57.453369 
L 491.453078 57.230988 
L 484.779307 57.869199 
L 478.105536 59.071968 
L 471.431766 60.437518 
L 464.757995 61.535332 
L 458.084225 62.010283 
L 451.410454 61.681735 
L 444.736684 60.602594 
L 438.062913 59.055137 
L 431.389142 57.482004 
L 424.715372 56.373003 
L 418.041601 56.142857 
L 411.367831 57.037353 
L 404.69406 59.096058 
L 398.02029 62.182717 
L 391.346519 66.074963 
L 384.672748 70.587849 
L 377.998978 75.694685 
L 371.325207 81.606339 
L 364.651437 88.77783 
L 357.977666 97.828668 
L 351.303896 109.388123 
L 344.630125 123.90228 
L 337.956354 141.457654 
L 331.282584 161.677783 
L 324.608813 183.731 
L 317.935043 206.453908 
L 311.261272 228.557824 
L 304.587501 248.859419 
L 297.913731 266.472097 
L 291.23996 280.912366 
L 284.56619 292.106707 
L 277.892419 300.31579 
L 271.218649 306.012683 
L 264.544878 309.755324 
L 257.871107 312.083636 
L 251.197337 313.455573 
L 244.523566 314.221428 
L 237.849796 314.626519 
L 231.176025 314.829575 
z
" style="fill:#ff7f0e;fill-opacity:0.25;"/>
   </g>
   <g id="matplotlib.axis_1">
    <g id="xtick_1">
     <g id="line2d_1">
      <defs>
       <path d="M 0 0 
L 0 3.5 
" id="m893ed5c701" style="stroke:#000000;stroke-width:0.8;"/>
      </defs>
      <g>
       <use style="stroke:#000000;stroke-width:0.8;" x="192.162564" xlink:href="#m893ed5c701" y="315"/>
      </g>
     </g>
     <g id="text_1">
      <!-- −1000 -->
      <defs>
       <path d="M 10.59375 35.5 
L 73.1875 35.5 
L 73.1875 27.203125 
L 10.59375 27.203125 
z
" id="DejaVuSans-8722"/>
       <path d="M 12.40625 8.296875 
L 28.515625 8.296875 
L 28.515625 63.921875 
L 10.984375 60.40625 
L 10.984375 69.390625 
L 28.421875 72.90625 
L 38.28125 72.90625 
L 38.28125 8.296875 
L 54.390625 8.296875 
L 54.390625 0 
L 12.40625 0 
z
" id="DejaVuSans-49"/>
       <path d="M 31.78125 66.40625 
Q 24.171875 66.40625 20.328125 58.90625 
Q 16.5 51.421875 16.5 36.375 
Q 16.5 21.390625 20.328125 13.890625 
Q 24.171875 6.390625 31.78125 6.390625 
Q 39.453125 6.390625 43.28125 13.890625 
Q 47.125 21.390625 47.125 36.375 
Q 47.125 51.421875 43.28125 58.90625 
Q 39.453125 66.40625 31.78125 66.40625 
z
M 31.78125 74.21875 
Q 44.046875 74.21875 50.515625 64.515625 
Q 56.984375 54.828125 56.984375 36.375 
Q 56.984375 17.96875 50.515625 8.265625 
Q 44.046875 -1.421875 31.78125 -1.421875 
Q 19.53125 -1.421875 13.0625 8.265625 
Q 6.59375 17.96875 6.59375 36.375 
Q 6.59375 54.828125 13.0625 64.515625 
Q 19.53125 74.21875 31.78125 74.21875 
z
" id="DejaVuSans-48"/>
      </defs>
      <g transform="translate(175.247721 329.598437)scale(0.1 -0.1)">
       <use xlink:href="#DejaVuSans-8722"/>
       <use x="83.789062" xlink:href="#DejaVuSans-49"/>
       <use x="147.412109" xlink:href="#DejaVuSans-48"/>
       <use x="211.035156" xlink:href="#DejaVuSans-48"/>
       <use x="274.658203" xlink:href="#DejaVuSans-48"/>
      </g>
     </g>
    </g>
    <g id="xtick_2">
     <g id="line2d_2">
      <g>
       <use style="stroke:#000000;stroke-width:0.8;" x="308.202722" xlink:href="#m893ed5c701" y="315"/>
      </g>
     </g>
     <g id="text_2">
      <!-- 0 -->
      <g transform="translate(305.021472 329.598437)scale(0.1 -0.1)">
       <use xlink:href="#DejaVuSans-48"/>
      </g>
     </g>
    </g>
    <g id="xtick_3">
     <g id="line2d_3">
      <g>
       <use style="stroke:#000000;stroke-width:0.8;" x="424.242879" xlink:href="#m893ed5c701" y="315"/>
      </g>
     </g>
     <g id="text_3">
      <!-- 1000 -->
      <g transform="translate(411.517879 329.598437)scale(0.1 -0.1)">
       <use xlink:href="#DejaVuSans-49"/>
       <use x="63.623047" xlink:href="#DejaVuSans-48"/>
       <use x="127.246094" xlink:href="#DejaVuSans-48"/>
       <use x="190.869141" xlink:href="#DejaVuSans-48"/>
      </g>
     </g>
    </g>
    <g id="xtick_4">
     <g id="line2d_4">
      <g>
       <use style="stroke:#000000;stroke-width:0.8;" x="540.283037" xlink:href="#m893ed5c701" y="315"/>
      </g>
     </g>
     <g id="text_4">
      <!-- 2000 -->
      <defs>
       <path d="M 19.1875 8.296875 
L 53.609375 8.296875 
L 53.609375 0 
L 7.328125 0 
L 7.328125 8.296875 
Q 12.9375 14.109375 22.625 23.890625 
Q 32.328125 33.6875 34.8125 36.53125 
Q 39.546875 41.84375 41.421875 45.53125 
Q 43.3125 49.21875 43.3125 52.78125 
Q 43.3125 58.59375 39.234375 62.25 
Q 35.15625 65.921875 28.609375 65.921875 
Q 23.96875 65.921875 18.8125 64.3125 
Q 13.671875 62.703125 7.8125 59.421875 
L 7.8125 69.390625 
Q 13.765625 71.78125 18.9375 73 
Q 24.125 74.21875 28.421875 74.21875 
Q 39.75 74.21875 46.484375 68.546875 
Q 53.21875 62.890625 53.21875 53.421875 
Q 53.21875 48.921875 51.53125 44.890625 
Q 49.859375 40.875 45.40625 35.40625 
Q 44.1875 33.984375 37.640625 27.21875 
Q 31.109375 20.453125 19.1875 8.296875 
z
" id="DejaVuSans-50"/>
      </defs>
      <g transform="translate(527.558037 329.598437)scale(0.1 -0.1)">
       <use xlink:href="#DejaVuSans-50"/>
       <use x="63.623047" xlink:href="#DejaVuSans-48"/>
       <use x="127.246094" xlink:href="#DejaVuSans-48"/>
       <use x="190.869141" xlink:href="#DejaVuSans-48"/>
      </g>
     </g>
    </g>
    <g id="xtick_5">
     <g id="line2d_5">
      <g>
       <use style="stroke:#000000;stroke-width:0.8;" x="656.323194" xlink:href="#m893ed5c701" y="315"/>
      </g>
     </g>
     <g id="text_5">
      <!-- 3000 -->
      <defs>
       <path d="M 40.578125 39.3125 
Q 47.65625 37.796875 51.625 33 
Q 55.609375 28.21875 55.609375 21.1875 
Q 55.609375 10.40625 48.1875 4.484375 
Q 40.765625 -1.421875 27.09375 -1.421875 
Q 22.515625 -1.421875 17.65625 -0.515625 
Q 12.796875 0.390625 7.625 2.203125 
L 7.625 11.71875 
Q 11.71875 9.328125 16.59375 8.109375 
Q 21.484375 6.890625 26.8125 6.890625 
Q 36.078125 6.890625 40.9375 10.546875 
Q 45.796875 14.203125 45.796875 21.1875 
Q 45.796875 27.640625 41.28125 31.265625 
Q 36.765625 34.90625 28.71875 34.90625 
L 20.21875 34.90625 
L 20.21875 43.015625 
L 29.109375 43.015625 
Q 36.375 43.015625 40.234375 45.921875 
Q 44.09375 48.828125 44.09375 54.296875 
Q 44.09375 59.90625 40.109375 62.90625 
Q 36.140625 65.921875 28.71875 65.921875 
Q 24.65625 65.921875 20.015625 65.03125 
Q 15.375 64.15625 9.8125 62.3125 
L 9.8125 71.09375 
Q 15.4375 72.65625 20.34375 73.4375 
Q 25.25 74.21875 29.59375 74.21875 
Q 40.828125 74.21875 47.359375 69.109375 
Q 53.90625 64.015625 53.90625 55.328125 
Q 53.90625 49.265625 50.4375 45.09375 
Q 46.96875 40.921875 40.578125 39.3125 
z
" id="DejaVuSans-51"/>
      </defs>
      <g transform="translate(643.598194 329.598437)scale(0.1 -0.1)">
       <use xlink:href="#DejaVuSans-51"/>
       <use x="63.623047" xlink:href="#DejaVuSans-48"/>
       <use x="127.246094" xlink:href="#DejaVuSans-48"/>
       <use x="190.869141" xlink:href="#DejaVuSans-48"/>
      </g>
     </g>
    </g>
    <g id="xtick_6">
     <g id="line2d_6">
      <g>
       <use style="stroke:#000000;stroke-width:0.8;" x="772.363352" xlink:href="#m893ed5c701" y="315"/>
      </g>
     </g>
     <g id="text_6">
      <!-- 4000 -->
      <defs>
       <path d="M 37.796875 64.3125 
L 12.890625 25.390625 
L 37.796875 25.390625 
z
M 35.203125 72.90625 
L 47.609375 72.90625 
L 47.609375 25.390625 
L 58.015625 25.390625 
L 58.015625 17.1875 
L 47.609375 17.1875 
L 47.609375 0 
L 37.796875 0 
L 37.796875 17.1875 
L 4.890625 17.1875 
L 4.890625 26.703125 
z
" id="DejaVuSans-52"/>
      </defs>
      <g transform="translate(759.638352 329.598437)scale(0.1 -0.1)">
       <use xlink:href="#DejaVuSans-52"/>
       <use x="63.623047" xlink:href="#DejaVuSans-48"/>
       <use x="127.246094" xlink:href="#DejaVuSans-48"/>
       <use x="190.869141" xlink:href="#DejaVuSans-48"/>
      </g>
     </g>
    </g>
    <g id="xtick_7">
     <g id="line2d_7">
      <g>
       <use style="stroke:#000000;stroke-width:0.8;" x="888.403509" xlink:href="#m893ed5c701" y="315"/>
      </g>
     </g>
     <g id="text_7">
      <!-- 5000 -->
      <defs>
       <path d="M 10.796875 72.90625 
L 49.515625 72.90625 
L 49.515625 64.59375 
L 19.828125 64.59375 
L 19.828125 46.734375 
Q 21.96875 47.46875 24.109375 47.828125 
Q 26.265625 48.1875 28.421875 48.1875 
Q 40.625 48.1875 47.75 41.5 
Q 54.890625 34.8125 54.890625 23.390625 
Q 54.890625 11.625 47.5625 5.09375 
Q 40.234375 -1.421875 26.90625 -1.421875 
Q 22.3125 -1.421875 17.546875 -0.640625 
Q 12.796875 0.140625 7.71875 1.703125 
L 7.71875 11.625 
Q 12.109375 9.234375 16.796875 8.0625 
Q 21.484375 6.890625 26.703125 6.890625 
Q 35.15625 6.890625 40.078125 11.328125 
Q 45.015625 15.765625 45.015625 23.390625 
Q 45.015625 31 40.078125 35.4375 
Q 35.15625 39.890625 26.703125 39.890625 
Q 22.75 39.890625 18.8125 39.015625 
Q 14.890625 38.140625 10.796875 36.28125 
z
" id="DejaVuSans-53"/>
      </defs>
      <g transform="translate(875.678509 329.598437)scale(0.1 -0.1)">
       <use xlink:href="#DejaVuSans-53"/>
       <use x="63.623047" xlink:href="#DejaVuSans-48"/>
       <use x="127.246094" xlink:href="#DejaVuSans-48"/>
       <use x="190.869141" xlink:href="#DejaVuSans-48"/>
      </g>
     </g>
    </g>
    <g id="xtick_8">
     <g id="line2d_8">
      <g>
       <use style="stroke:#000000;stroke-width:0.8;" x="1004.443666" xlink:href="#m893ed5c701" y="315"/>
      </g>
     </g>
     <g id="text_8">
      <!-- 6000 -->
      <defs>
       <path d="M 33.015625 40.375 
Q 26.375 40.375 22.484375 35.828125 
Q 18.609375 31.296875 18.609375 23.390625 
Q 18.609375 15.53125 22.484375 10.953125 
Q 26.375 6.390625 33.015625 6.390625 
Q 39.65625 6.390625 43.53125 10.953125 
Q 47.40625 15.53125 47.40625 23.390625 
Q 47.40625 31.296875 43.53125 35.828125 
Q 39.65625 40.375 33.015625 40.375 
z
M 52.59375 71.296875 
L 52.59375 62.3125 
Q 48.875 64.0625 45.09375 64.984375 
Q 41.3125 65.921875 37.59375 65.921875 
Q 27.828125 65.921875 22.671875 59.328125 
Q 17.53125 52.734375 16.796875 39.40625 
Q 19.671875 43.65625 24.015625 45.921875 
Q 28.375 48.1875 33.59375 48.1875 
Q 44.578125 48.1875 50.953125 41.515625 
Q 57.328125 34.859375 57.328125 23.390625 
Q 57.328125 12.15625 50.6875 5.359375 
Q 44.046875 -1.421875 33.015625 -1.421875 
Q 20.359375 -1.421875 13.671875 8.265625 
Q 6.984375 17.96875 6.984375 36.375 
Q 6.984375 53.65625 15.1875 63.9375 
Q 23.390625 74.21875 37.203125 74.21875 
Q 40.921875 74.21875 44.703125 73.484375 
Q 48.484375 72.75 52.59375 71.296875 
z
" id="DejaVuSans-54"/>
      </defs>
      <g transform="translate(991.718666 329.598437)scale(0.1 -0.1)">
       <use xlink:href="#DejaVuSans-54"/>
       <use x="63.623047" xlink:href="#DejaVuSans-48"/>
       <use x="127.246094" xlink:href="#DejaVuSans-48"/>
       <use x="190.869141" xlink:href="#DejaVuSans-48"/>
      </g>
     </g>
    </g>
    <g id="xtick_9">
     <g id="line2d_9">
      <g>
       <use style="stroke:#000000;stroke-width:0.8;" x="1120.483824" xlink:href="#m893ed5c701" y="315"/>
      </g>
     </g>
     <g id="text_9">
      <!-- 7000 -->
      <defs>
       <path d="M 8.203125 72.90625 
L 55.078125 72.90625 
L 55.078125 68.703125 
L 28.609375 0 
L 18.3125 0 
L 43.21875 64.59375 
L 8.203125 64.59375 
z
" id="DejaVuSans-55"/>
      </defs>
      <g transform="translate(1107.758824 329.598437)scale(0.1 -0.1)">
       <use xlink:href="#DejaVuSans-55"/>
       <use x="63.623047" xlink:href="#DejaVuSans-48"/>
       <use x="127.246094" xlink:href="#DejaVuSans-48"/>
       <use x="190.869141" xlink:href="#DejaVuSans-48"/>
      </g>
     </g>
    </g>
    <g id="text_10">
     <!-- Elevator time (in seconds) -->
     <defs>
      <path d="M 9.8125 72.90625 
L 55.90625 72.90625 
L 55.90625 64.59375 
L 19.671875 64.59375 
L 19.671875 43.015625 
L 54.390625 43.015625 
L 54.390625 34.71875 
L 19.671875 34.71875 
L 19.671875 8.296875 
L 56.78125 8.296875 
L 56.78125 0 
L 9.8125 0 
z
" id="DejaVuSans-69"/>
      <path d="M 9.421875 75.984375 
L 18.40625 75.984375 
L 18.40625 0 
L 9.421875 0 
z
" id="DejaVuSans-108"/>
      <path d="M 56.203125 29.59375 
L 56.203125 25.203125 
L 14.890625 25.203125 
Q 15.484375 15.921875 20.484375 11.0625 
Q 25.484375 6.203125 34.421875 6.203125 
Q 39.59375 6.203125 44.453125 7.46875 
Q 49.3125 8.734375 54.109375 11.28125 
L 54.109375 2.78125 
Q 49.265625 0.734375 44.1875 -0.34375 
Q 39.109375 -1.421875 33.890625 -1.421875 
Q 20.796875 -1.421875 13.15625 6.1875 
Q 5.515625 13.8125 5.515625 26.8125 
Q 5.515625 40.234375 12.765625 48.109375 
Q 20.015625 56 32.328125 56 
Q 43.359375 56 49.78125 48.890625 
Q 56.203125 41.796875 56.203125 29.59375 
z
M 47.21875 32.234375 
Q 47.125 39.59375 43.09375 43.984375 
Q 39.0625 48.390625 32.421875 48.390625 
Q 24.90625 48.390625 20.390625 44.140625 
Q 15.875 39.890625 15.1875 32.171875 
z
" id="DejaVuSans-101"/>
      <path d="M 2.984375 54.6875 
L 12.5 54.6875 
L 29.59375 8.796875 
L 46.6875 54.6875 
L 56.203125 54.6875 
L 35.6875 0 
L 23.484375 0 
z
" id="DejaVuSans-118"/>
      <path d="M 34.28125 27.484375 
Q 23.390625 27.484375 19.1875 25 
Q 14.984375 22.515625 14.984375 16.5 
Q 14.984375 11.71875 18.140625 8.90625 
Q 21.296875 6.109375 26.703125 6.109375 
Q 34.1875 6.109375 38.703125 11.40625 
Q 43.21875 16.703125 43.21875 25.484375 
L 43.21875 27.484375 
z
M 52.203125 31.203125 
L 52.203125 0 
L 43.21875 0 
L 43.21875 8.296875 
Q 40.140625 3.328125 35.546875 0.953125 
Q 30.953125 -1.421875 24.3125 -1.421875 
Q 15.921875 -1.421875 10.953125 3.296875 
Q 6 8.015625 6 15.921875 
Q 6 25.140625 12.171875 29.828125 
Q 18.359375 34.515625 30.609375 34.515625 
L 43.21875 34.515625 
L 43.21875 35.40625 
Q 43.21875 41.609375 39.140625 45 
Q 35.0625 48.390625 27.6875 48.390625 
Q 23 48.390625 18.546875 47.265625 
Q 14.109375 46.140625 10.015625 43.890625 
L 10.015625 52.203125 
Q 14.9375 54.109375 19.578125 55.046875 
Q 24.21875 56 28.609375 56 
Q 40.484375 56 46.34375 49.84375 
Q 52.203125 43.703125 52.203125 31.203125 
z
" id="DejaVuSans-97"/>
      <path d="M 18.3125 70.21875 
L 18.3125 54.6875 
L 36.8125 54.6875 
L 36.8125 47.703125 
L 18.3125 47.703125 
L 18.3125 18.015625 
Q 18.3125 11.328125 20.140625 9.421875 
Q 21.96875 7.515625 27.59375 7.515625 
L 36.8125 7.515625 
L 36.8125 0 
L 27.59375 0 
Q 17.1875 0 13.234375 3.875 
Q 9.28125 7.765625 9.28125 18.015625 
L 9.28125 47.703125 
L 2.6875 47.703125 
L 2.6875 54.6875 
L 9.28125 54.6875 
L 9.28125 70.21875 
z
" id="DejaVuSans-116"/>
      <path d="M 30.609375 48.390625 
Q 23.390625 48.390625 19.1875 42.75 
Q 14.984375 37.109375 14.984375 27.296875 
Q 14.984375 17.484375 19.15625 11.84375 
Q 23.34375 6.203125 30.609375 6.203125 
Q 37.796875 6.203125 41.984375 11.859375 
Q 46.1875 17.53125 46.1875 27.296875 
Q 46.1875 37.015625 41.984375 42.703125 
Q 37.796875 48.390625 30.609375 48.390625 
z
M 30.609375 56 
Q 42.328125 56 49.015625 48.375 
Q 55.71875 40.765625 55.71875 27.296875 
Q 55.71875 13.875 49.015625 6.21875 
Q 42.328125 -1.421875 30.609375 -1.421875 
Q 18.84375 -1.421875 12.171875 6.21875 
Q 5.515625 13.875 5.515625 27.296875 
Q 5.515625 40.765625 12.171875 48.375 
Q 18.84375 56 30.609375 56 
z
" id="DejaVuSans-111"/>
      <path d="M 41.109375 46.296875 
Q 39.59375 47.171875 37.8125 47.578125 
Q 36.03125 48 33.890625 48 
Q 26.265625 48 22.1875 43.046875 
Q 18.109375 38.09375 18.109375 28.8125 
L 18.109375 0 
L 9.078125 0 
L 9.078125 54.6875 
L 18.109375 54.6875 
L 18.109375 46.1875 
Q 20.953125 51.171875 25.484375 53.578125 
Q 30.03125 56 36.53125 56 
Q 37.453125 56 38.578125 55.875 
Q 39.703125 55.765625 41.0625 55.515625 
z
" id="DejaVuSans-114"/>
      <path id="DejaVuSans-32"/>
      <path d="M 9.421875 54.6875 
L 18.40625 54.6875 
L 18.40625 0 
L 9.421875 0 
z
M 9.421875 75.984375 
L 18.40625 75.984375 
L 18.40625 64.59375 
L 9.421875 64.59375 
z
" id="DejaVuSans-105"/>
      <path d="M 52 44.1875 
Q 55.375 50.25 60.0625 53.125 
Q 64.75 56 71.09375 56 
Q 79.640625 56 84.28125 50.015625 
Q 88.921875 44.046875 88.921875 33.015625 
L 88.921875 0 
L 79.890625 0 
L 79.890625 32.71875 
Q 79.890625 40.578125 77.09375 44.375 
Q 74.3125 48.1875 68.609375 48.1875 
Q 61.625 48.1875 57.5625 43.546875 
Q 53.515625 38.921875 53.515625 30.90625 
L 53.515625 0 
L 44.484375 0 
L 44.484375 32.71875 
Q 44.484375 40.625 41.703125 44.40625 
Q 38.921875 48.1875 33.109375 48.1875 
Q 26.21875 48.1875 22.15625 43.53125 
Q 18.109375 38.875 18.109375 30.90625 
L 18.109375 0 
L 9.078125 0 
L 9.078125 54.6875 
L 18.109375 54.6875 
L 18.109375 46.1875 
Q 21.1875 51.21875 25.484375 53.609375 
Q 29.78125 56 35.6875 56 
Q 41.65625 56 45.828125 52.96875 
Q 50 49.953125 52 44.1875 
z
" id="DejaVuSans-109"/>
      <path d="M 31 75.875 
Q 24.46875 64.65625 21.28125 53.65625 
Q 18.109375 42.671875 18.109375 31.390625 
Q 18.109375 20.125 21.3125 9.0625 
Q 24.515625 -2 31 -13.1875 
L 23.1875 -13.1875 
Q 15.875 -1.703125 12.234375 9.375 
Q 8.59375 20.453125 8.59375 31.390625 
Q 8.59375 42.28125 12.203125 53.3125 
Q 15.828125 64.359375 23.1875 75.875 
z
" id="DejaVuSans-40"/>
      <path d="M 54.890625 33.015625 
L 54.890625 0 
L 45.90625 0 
L 45.90625 32.71875 
Q 45.90625 40.484375 42.875 44.328125 
Q 39.84375 48.1875 33.796875 48.1875 
Q 26.515625 48.1875 22.3125 43.546875 
Q 18.109375 38.921875 18.109375 30.90625 
L 18.109375 0 
L 9.078125 0 
L 9.078125 54.6875 
L 18.109375 54.6875 
L 18.109375 46.1875 
Q 21.34375 51.125 25.703125 53.5625 
Q 30.078125 56 35.796875 56 
Q 45.21875 56 50.046875 50.171875 
Q 54.890625 44.34375 54.890625 33.015625 
z
" id="DejaVuSans-110"/>
      <path d="M 44.28125 53.078125 
L 44.28125 44.578125 
Q 40.484375 46.53125 36.375 47.5 
Q 32.28125 48.484375 27.875 48.484375 
Q 21.1875 48.484375 17.84375 46.4375 
Q 14.5 44.390625 14.5 40.28125 
Q 14.5 37.15625 16.890625 35.375 
Q 19.28125 33.59375 26.515625 31.984375 
L 29.59375 31.296875 
Q 39.15625 29.25 43.1875 25.515625 
Q 47.21875 21.78125 47.21875 15.09375 
Q 47.21875 7.46875 41.1875 3.015625 
Q 35.15625 -1.421875 24.609375 -1.421875 
Q 20.21875 -1.421875 15.453125 -0.5625 
Q 10.6875 0.296875 5.421875 2 
L 5.421875 11.28125 
Q 10.40625 8.6875 15.234375 7.390625 
Q 20.0625 6.109375 24.8125 6.109375 
Q 31.15625 6.109375 34.5625 8.28125 
Q 37.984375 10.453125 37.984375 14.40625 
Q 37.984375 18.0625 35.515625 20.015625 
Q 33.0625 21.96875 24.703125 23.78125 
L 21.578125 24.515625 
Q 13.234375 26.265625 9.515625 29.90625 
Q 5.8125 33.546875 5.8125 39.890625 
Q 5.8125 47.609375 11.28125 51.796875 
Q 16.75 56 26.8125 56 
Q 31.78125 56 36.171875 55.265625 
Q 40.578125 54.546875 44.28125 53.078125 
z
" id="DejaVuSans-115"/>
      <path d="M 48.78125 52.59375 
L 48.78125 44.1875 
Q 44.96875 46.296875 41.140625 47.34375 
Q 37.3125 48.390625 33.40625 48.390625 
Q 24.65625 48.390625 19.8125 42.84375 
Q 14.984375 37.3125 14.984375 27.296875 
Q 14.984375 17.28125 19.8125 11.734375 
Q 24.65625 6.203125 33.40625 6.203125 
Q 37.3125 6.203125 41.140625 7.25 
Q 44.96875 8.296875 48.78125 10.40625 
L 48.78125 2.09375 
Q 45.015625 0.34375 40.984375 -0.53125 
Q 36.96875 -1.421875 32.421875 -1.421875 
Q 20.0625 -1.421875 12.78125 6.34375 
Q 5.515625 14.109375 5.515625 27.296875 
Q 5.515625 40.671875 12.859375 48.328125 
Q 20.21875 56 33.015625 56 
Q 37.15625 56 41.109375 55.140625 
Q 45.0625 54.296875 48.78125 52.59375 
z
" id="DejaVuSans-99"/>
      <path d="M 45.40625 46.390625 
L 45.40625 75.984375 
L 54.390625 75.984375 
L 54.390625 0 
L 45.40625 0 
L 45.40625 8.203125 
Q 42.578125 3.328125 38.25 0.953125 
Q 33.9375 -1.421875 27.875 -1.421875 
Q 17.96875 -1.421875 11.734375 6.484375 
Q 5.515625 14.40625 5.515625 27.296875 
Q 5.515625 40.1875 11.734375 48.09375 
Q 17.96875 56 27.875 56 
Q 33.9375 56 38.25 53.625 
Q 42.578125 51.265625 45.40625 46.390625 
z
M 14.796875 27.296875 
Q 14.796875 17.390625 18.875 11.75 
Q 22.953125 6.109375 30.078125 6.109375 
Q 37.203125 6.109375 41.296875 11.75 
Q 45.40625 17.390625 45.40625 27.296875 
Q 45.40625 37.203125 41.296875 42.84375 
Q 37.203125 48.484375 30.078125 48.484375 
Q 22.953125 48.484375 18.875 42.84375 
Q 14.796875 37.203125 14.796875 27.296875 
z
" id="DejaVuSans-100"/>
      <path d="M 8.015625 75.875 
L 15.828125 75.875 
Q 23.140625 64.359375 26.78125 53.3125 
Q 30.421875 42.28125 30.421875 31.390625 
Q 30.421875 20.453125 26.78125 9.375 
Q 23.140625 -1.703125 15.828125 -13.1875 
L 8.015625 -13.1875 
Q 14.5 -2 17.703125 9.0625 
Q 20.90625 20.125 20.90625 31.390625 
Q 20.90625 42.671875 17.703125 53.65625 
Q 14.5 64.65625 8.015625 75.875 
z
" id="DejaVuSans-41"/>
     </defs>
     <g transform="translate(598.516406 343.276563)scale(0.1 -0.1)">
      <use xlink:href="#DejaVuSans-69"/>
      <use x="63.183594" xlink:href="#DejaVuSans-108"/>
      <use x="90.966797" xlink:href="#DejaVuSans-101"/>
      <use x="152.490234" xlink:href="#DejaVuSans-118"/>
      <use x="211.669922" xlink:href="#DejaVuSans-97"/>
      <use x="272.949219" xlink:href="#DejaVuSans-116"/>
      <use x="312.158203" xlink:href="#DejaVuSans-111"/>
      <use x="373.339844" xlink:href="#DejaVuSans-114"/>
      <use x="414.453125" xlink:href="#DejaVuSans-32"/>
      <use x="446.240234" xlink:href="#DejaVuSans-116"/>
      <use x="485.449219" xlink:href="#DejaVuSans-105"/>
      <use x="513.232422" xlink:href="#DejaVuSans-109"/>
      <use x="610.644531" xlink:href="#DejaVuSans-101"/>
      <use x="672.167969" xlink:href="#DejaVuSans-32"/>
      <use x="703.955078" xlink:href="#DejaVuSans-40"/>
      <use x="742.96875" xlink:href="#DejaVuSans-105"/>
      <use x="770.751953" xlink:href="#DejaVuSans-110"/>
      <use x="834.130859" xlink:href="#DejaVuSans-32"/>
      <use x="865.917969" xlink:href="#DejaVuSans-115"/>
      <use x="918.017578" xlink:href="#DejaVuSans-101"/>
      <use x="979.541016" xlink:href="#DejaVuSans-99"/>
      <use x="1034.521484" xlink:href="#DejaVuSans-111"/>
      <use x="1095.703125" xlink:href="#DejaVuSans-110"/>
      <use x="1159.082031" xlink:href="#DejaVuSans-100"/>
      <use x="1222.558594" xlink:href="#DejaVuSans-115"/>
      <use x="1274.658203" xlink:href="#DejaVuSans-41"/>
     </g>
    </g>
   </g>
   <g id="matplotlib.axis_2">
    <g id="ytick_1">
     <g id="line2d_10">
      <defs>
       <path d="M 0 0 
L -3.5 0 
" id="meb8722edf1" style="stroke:#000000;stroke-width:0.8;"/>
      </defs>
      <g>
       <use style="stroke:#000000;stroke-width:0.8;" x="162" xlink:href="#meb8722edf1" y="315"/>
      </g>
     </g>
     <g id="text_11">
      <!-- 0.00000 -->
      <defs>
       <path d="M 10.6875 12.40625 
L 21 12.40625 
L 21 0 
L 10.6875 0 
z
" id="DejaVuSans-46"/>
      </defs>
      <g transform="translate(113.646875 318.799219)scale(0.1 -0.1)">
       <use xlink:href="#DejaVuSans-48"/>
       <use x="63.623047" xlink:href="#DejaVuSans-46"/>
       <use x="95.410156" xlink:href="#DejaVuSans-48"/>
       <use x="159.033203" xlink:href="#DejaVuSans-48"/>
       <use x="222.65625" xlink:href="#DejaVuSans-48"/>
       <use x="286.279297" xlink:href="#DejaVuSans-48"/>
       <use x="349.902344" xlink:href="#DejaVuSans-48"/>
      </g>
     </g>
    </g>
    <g id="ytick_2">
     <g id="line2d_11">
      <g>
       <use style="stroke:#000000;stroke-width:0.8;" x="162" xlink:href="#meb8722edf1" y="277.515029"/>
      </g>
     </g>
     <g id="text_12">
      <!-- 0.00005 -->
      <g transform="translate(113.646875 281.314248)scale(0.1 -0.1)">
       <use xlink:href="#DejaVuSans-48"/>
       <use x="63.623047" xlink:href="#DejaVuSans-46"/>
       <use x="95.410156" xlink:href="#DejaVuSans-48"/>
       <use x="159.033203" xlink:href="#DejaVuSans-48"/>
       <use x="222.65625" xlink:href="#DejaVuSans-48"/>
       <use x="286.279297" xlink:href="#DejaVuSans-48"/>
       <use x="349.902344" xlink:href="#DejaVuSans-53"/>
      </g>
     </g>
    </g>
    <g id="ytick_3">
     <g id="line2d_12">
      <g>
       <use style="stroke:#000000;stroke-width:0.8;" x="162" xlink:href="#meb8722edf1" y="240.030058"/>
      </g>
     </g>
     <g id="text_13">
      <!-- 0.00010 -->
      <g transform="translate(113.646875 243.829276)scale(0.1 -0.1)">
       <use xlink:href="#DejaVuSans-48"/>
       <use x="63.623047" xlink:href="#DejaVuSans-46"/>
       <use x="95.410156" xlink:href="#DejaVuSans-48"/>
       <use x="159.033203" xlink:href="#DejaVuSans-48"/>
       <use x="222.65625" xlink:href="#DejaVuSans-48"/>
       <use x="286.279297" xlink:href="#DejaVuSans-49"/>
       <use x="349.902344" xlink:href="#DejaVuSans-48"/>
      </g>
     </g>
    </g>
    <g id="ytick_4">
     <g id="line2d_13">
      <g>
       <use style="stroke:#000000;stroke-width:0.8;" x="162" xlink:href="#meb8722edf1" y="202.545086"/>
      </g>
     </g>
     <g id="text_14">
      <!-- 0.00015 -->
      <g transform="translate(113.646875 206.344305)scale(0.1 -0.1)">
       <use xlink:href="#DejaVuSans-48"/>
       <use x="63.623047" xlink:href="#DejaVuSans-46"/>
       <use x="95.410156" xlink:href="#DejaVuSans-48"/>
       <use x="159.033203" xlink:href="#DejaVuSans-48"/>
       <use x="222.65625" xlink:href="#DejaVuSans-48"/>
       <use x="286.279297" xlink:href="#DejaVuSans-49"/>
       <use x="349.902344" xlink:href="#DejaVuSans-53"/>
      </g>
     </g>
    </g>
    <g id="ytick_5">
     <g id="line2d_14">
      <g>
       <use style="stroke:#000000;stroke-width:0.8;" x="162" xlink:href="#meb8722edf1" y="165.060115"/>
      </g>
     </g>
     <g id="text_15">
      <!-- 0.00020 -->
      <g transform="translate(113.646875 168.859334)scale(0.1 -0.1)">
       <use xlink:href="#DejaVuSans-48"/>
       <use x="63.623047" xlink:href="#DejaVuSans-46"/>
       <use x="95.410156" xlink:href="#DejaVuSans-48"/>
       <use x="159.033203" xlink:href="#DejaVuSans-48"/>
       <use x="222.65625" xlink:href="#DejaVuSans-48"/>
       <use x="286.279297" xlink:href="#DejaVuSans-50"/>
       <use x="349.902344" xlink:href="#DejaVuSans-48"/>
      </g>
     </g>
    </g>
    <g id="ytick_6">
     <g id="line2d_15">
      <g>
       <use style="stroke:#000000;stroke-width:0.8;" x="162" xlink:href="#meb8722edf1" y="127.575144"/>
      </g>
     </g>
     <g id="text_16">
      <!-- 0.00025 -->
      <g transform="translate(113.646875 131.374363)scale(0.1 -0.1)">
       <use xlink:href="#DejaVuSans-48"/>
       <use x="63.623047" xlink:href="#DejaVuSans-46"/>
       <use x="95.410156" xlink:href="#DejaVuSans-48"/>
       <use x="159.033203" xlink:href="#DejaVuSans-48"/>
       <use x="222.65625" xlink:href="#DejaVuSans-48"/>
       <use x="286.279297" xlink:href="#DejaVuSans-50"/>
       <use x="349.902344" xlink:href="#DejaVuSans-53"/>
      </g>
     </g>
    </g>
    <g id="ytick_7">
     <g id="line2d_16">
      <g>
       <use style="stroke:#000000;stroke-width:0.8;" x="162" xlink:href="#meb8722edf1" y="90.090173"/>
      </g>
     </g>
     <g id="text_17">
      <!-- 0.00030 -->
      <g transform="translate(113.646875 93.889391)scale(0.1 -0.1)">
       <use xlink:href="#DejaVuSans-48"/>
       <use x="63.623047" xlink:href="#DejaVuSans-46"/>
       <use x="95.410156" xlink:href="#DejaVuSans-48"/>
       <use x="159.033203" xlink:href="#DejaVuSans-48"/>
       <use x="222.65625" xlink:href="#DejaVuSans-48"/>
       <use x="286.279297" xlink:href="#DejaVuSans-51"/>
       <use x="349.902344" xlink:href="#DejaVuSans-48"/>
      </g>
     </g>
    </g>
    <g id="ytick_8">
     <g id="line2d_17">
      <g>
       <use style="stroke:#000000;stroke-width:0.8;" x="162" xlink:href="#meb8722edf1" y="52.605201"/>
      </g>
     </g>
     <g id="text_18">
      <!-- 0.00035 -->
      <g transform="translate(113.646875 56.40442)scale(0.1 -0.1)">
       <use xlink:href="#DejaVuSans-48"/>
       <use x="63.623047" xlink:href="#DejaVuSans-46"/>
       <use x="95.410156" xlink:href="#DejaVuSans-48"/>
       <use x="159.033203" xlink:href="#DejaVuSans-48"/>
       <use x="222.65625" xlink:href="#DejaVuSans-48"/>
       <use x="286.279297" xlink:href="#DejaVuSans-51"/>
       <use x="349.902344" xlink:href="#DejaVuSans-53"/>
      </g>
     </g>
    </g>
    <g id="text_19">
     <!-- Density -->
     <defs>
      <path d="M 19.671875 64.796875 
L 19.671875 8.109375 
L 31.59375 8.109375 
Q 46.6875 8.109375 53.6875 14.9375 
Q 60.6875 21.78125 60.6875 36.53125 
Q 60.6875 51.171875 53.6875 57.984375 
Q 46.6875 64.796875 31.59375 64.796875 
z
M 9.8125 72.90625 
L 30.078125 72.90625 
Q 51.265625 72.90625 61.171875 64.09375 
Q 71.09375 55.28125 71.09375 36.53125 
Q 71.09375 17.671875 61.125 8.828125 
Q 51.171875 0 30.078125 0 
L 9.8125 0 
z
" id="DejaVuSans-68"/>
      <path d="M 32.171875 -5.078125 
Q 28.375 -14.84375 24.75 -17.8125 
Q 21.140625 -20.796875 15.09375 -20.796875 
L 7.90625 -20.796875 
L 7.90625 -13.28125 
L 13.1875 -13.28125 
Q 16.890625 -13.28125 18.9375 -11.515625 
Q 21 -9.765625 23.484375 -3.21875 
L 25.09375 0.875 
L 2.984375 54.6875 
L 12.5 54.6875 
L 29.59375 11.921875 
L 46.6875 54.6875 
L 56.203125 54.6875 
z
" id="DejaVuSans-121"/>
     </defs>
     <g transform="translate(107.567187 198.108594)rotate(-90)scale(0.1 -0.1)">
      <use xlink:href="#DejaVuSans-68"/>
      <use x="77.001953" xlink:href="#DejaVuSans-101"/>
      <use x="138.525391" xlink:href="#DejaVuSans-110"/>
      <use x="201.904297" xlink:href="#DejaVuSans-115"/>
      <use x="254.003906" xlink:href="#DejaVuSans-105"/>
      <use x="281.787109" xlink:href="#DejaVuSans-116"/>
      <use x="320.996094" xlink:href="#DejaVuSans-121"/>
     </g>
    </g>
   </g>
   <g id="line2d_18">
    <path clip-path="url(#p2c7c4bd051)" d="M 207.654545 314.852036 
L 216.877686 314.664686 
L 226.100826 314.28066 
L 235.323967 313.53852 
L 244.547107 312.186491 
L 253.770248 309.864836 
L 262.993388 306.107769 
L 272.216529 300.379075 
L 281.439669 292.150437 
L 290.66281 281.018322 
L 299.88595 266.836433 
L 309.109091 249.823861 
L 318.332231 230.604165 
L 327.555372 210.145021 
L 336.778512 189.600401 
L 346.001653 170.095303 
L 355.224793 152.518938 
L 364.447934 137.391723 
L 373.671074 124.842938 
L 382.894215 114.69245 
L 392.117355 106.592114 
L 401.340496 100.167194 
L 410.563636 95.109805 
L 419.786777 91.206132 
L 429.009917 88.311094 
L 438.233058 86.303652 
L 447.456198 85.056642 
L 456.679339 84.439465 
L 465.902479 84.34987 
L 475.12562 84.753513 
L 484.34876 85.705173 
L 493.571901 87.334716 
L 502.795041 89.798604 
L 512.018182 93.214838 
L 521.241322 97.607331 
L 530.464463 102.881564 
L 539.687603 108.839592 
L 548.910744 115.226003 
L 558.133884 121.784755 
L 567.357025 128.304603 
L 576.580165 134.6383 
L 585.803306 140.693931 
L 595.026446 146.409636 
L 604.249587 151.73008 
L 613.472727 156.601373 
L 622.695868 160.991206 
L 631.919008 164.926692 
L 641.142149 168.53006 
L 650.365289 172.028256 
L 659.58843 175.720399 
L 668.81157 179.905035 
L 678.034711 184.789756 
L 687.257851 190.418494 
L 696.480992 196.648729 
L 705.704132 203.191728 
L 714.927273 209.702205 
L 724.150413 215.882674 
L 733.373554 221.562812 
L 742.596694 226.727163 
L 751.819835 231.488076 
L 761.042975 236.022476 
L 770.266116 240.501321 
L 779.489256 245.036835 
L 788.712397 249.659711 
L 797.935537 254.324606 
L 807.158678 258.933553 
L 816.381818 263.365458 
L 825.604959 267.50318 
L 834.828099 271.25409 
L 844.05124 274.562918 
L 853.27438 277.416588 
L 862.497521 279.841166 
L 871.720661 281.892197 
L 880.943802 283.64169 
L 890.166942 285.166454 
L 899.390083 286.541763 
L 908.613223 287.841237 
L 917.836364 289.139865 
L 927.059504 290.514788 
L 936.282645 292.039446 
L 945.505785 293.770669 
L 954.728926 295.733003 
L 963.952066 297.907222 
L 973.175207 300.229011 
L 982.398347 302.599718 
L 991.621488 304.906053 
L 1000.844628 307.042239 
L 1010.067769 308.927858 
L 1019.290909 310.517113 
L 1028.51405 311.798949 
L 1037.73719 312.790424 
L 1046.960331 313.526995 
L 1056.183471 314.052944 
L 1065.406612 314.413822 
L 1074.629752 314.651483 
L 1083.852893 314.80142 
L 1093.076033 314.891827 
L 1102.299174 314.943795 
L 1111.522314 314.972205 
L 1120.745455 314.986941 
" style="fill:none;stroke:#1f77b4;stroke-linecap:square;stroke-width:3;"/>
   </g>
   <g id="line2d_19">
    <path clip-path="url(#p2c7c4bd051)" d="M 231.176025 314.829575 
L 237.849796 314.626519 
L 244.523566 314.221428 
L 251.197337 313.455573 
L 257.871107 312.083636 
L 264.544878 309.755324 
L 271.218649 306.012683 
L 277.892419 300.31579 
L 284.56619 292.106707 
L 291.23996 280.912366 
L 297.913731 266.472097 
L 304.587501 248.859419 
L 311.261272 228.557824 
L 317.935043 206.453908 
L 324.608813 183.731 
L 331.282584 161.677783 
L 337.956354 141.457654 
L 344.630125 123.90228 
L 351.303896 109.388123 
L 357.977666 97.828668 
L 364.651437 88.77783 
L 371.325207 81.606339 
L 377.998978 75.694685 
L 384.672748 70.587849 
L 391.346519 66.074963 
L 398.02029 62.182717 
L 404.69406 59.096058 
L 411.367831 57.037353 
L 418.041601 56.142857 
L 424.715372 56.373003 
L 431.389142 57.482004 
L 438.062913 59.055137 
L 444.736684 60.602594 
L 451.410454 61.681735 
L 458.084225 62.010283 
L 464.757995 61.535332 
L 471.431766 60.437518 
L 478.105536 59.071968 
L 484.779307 57.869199 
L 491.453078 57.230988 
L 498.126848 57.453369 
L 504.800619 58.693445 
L 511.474389 60.976974 
L 518.14816 64.229675 
L 524.821931 68.312484 
L 531.495701 73.048476 
L 538.169472 78.240061 
L 544.843242 83.68226 
L 551.517013 89.178168 
L 558.190783 94.558107 
L 564.864554 99.698983 
L 571.538325 104.538704 
L 578.212095 109.082203 
L 584.885866 113.398607 
L 591.559636 117.610771 
L 598.233407 121.87846 
L 604.907177 126.376193 
L 611.580948 131.267651 
L 618.254719 136.68048 
L 624.928489 142.686708 
L 631.60226 149.293188 
L 638.27603 156.443543 
L 644.949801 164.029751 
L 651.623571 171.909702 
L 658.297342 179.927347 
L 664.971113 187.933166 
L 671.644883 195.802914 
L 678.318654 203.451592 
L 684.992424 210.838679 
L 691.666195 217.961782 
L 698.339966 224.839744 
L 705.013736 231.490992 
L 711.687507 237.915831 
L 718.361277 244.0901 
L 725.035048 249.97251 
L 731.708818 255.521651 
L 738.382589 260.714531 
L 745.05636 265.558465 
L 751.73013 270.091881 
L 758.403901 274.374676 
L 765.077671 278.472617 
L 771.751442 282.441368 
L 778.425212 286.314448 
L 785.098983 290.097078 
L 791.772754 293.765928 
L 798.446524 297.273853 
L 805.120295 300.558405 
L 811.794065 303.552844 
L 818.467836 306.197939 
L 825.141607 308.452468 
L 831.815377 310.300267 
L 838.489148 311.752349 
L 845.162918 312.8439 
L 851.836689 313.627296 
L 858.510459 314.163253 
L 865.18423 314.51235 
L 871.858001 314.728614 
L 878.531771 314.855933 
L 885.205542 314.927115 
L 891.879312 314.964888 
" style="fill:none;stroke:#ff7f0e;stroke-linecap:square;stroke-width:3;"/>
   </g>
   <g id="patch_3">
    <path d="M 162 315 
L 162 43.2 
" style="fill:none;stroke:#000000;stroke-linecap:square;stroke-linejoin:miter;stroke-width:0.8;"/>
   </g>
   <g id="patch_4">
    <path d="M 1166.4 315 
L 1166.4 43.2 
" style="fill:none;stroke:#000000;stroke-linecap:square;stroke-linejoin:miter;stroke-width:0.8;"/>
   </g>
   <g id="patch_5">
    <path d="M 162 315 
L 1166.4 315 
" style="fill:none;stroke:#000000;stroke-linecap:square;stroke-linejoin:miter;stroke-width:0.8;"/>
   </g>
   <g id="patch_6">
    <path d="M 162 43.2 
L 1166.4 43.2 
" style="fill:none;stroke:#000000;stroke-linecap:square;stroke-linejoin:miter;stroke-width:0.8;"/>
   </g>
   <g id="text_20">
    <!-- Distribution of elevator times -->
    <defs>
     <path d="M 48.6875 27.296875 
Q 48.6875 37.203125 44.609375 42.84375 
Q 40.53125 48.484375 33.40625 48.484375 
Q 26.265625 48.484375 22.1875 42.84375 
Q 18.109375 37.203125 18.109375 27.296875 
Q 18.109375 17.390625 22.1875 11.75 
Q 26.265625 6.109375 33.40625 6.109375 
Q 40.53125 6.109375 44.609375 11.75 
Q 48.6875 17.390625 48.6875 27.296875 
z
M 18.109375 46.390625 
Q 20.953125 51.265625 25.265625 53.625 
Q 29.59375 56 35.59375 56 
Q 45.5625 56 51.78125 48.09375 
Q 58.015625 40.1875 58.015625 27.296875 
Q 58.015625 14.40625 51.78125 6.484375 
Q 45.5625 -1.421875 35.59375 -1.421875 
Q 29.59375 -1.421875 25.265625 0.953125 
Q 20.953125 3.328125 18.109375 8.203125 
L 18.109375 0 
L 9.078125 0 
L 9.078125 75.984375 
L 18.109375 75.984375 
z
" id="DejaVuSans-98"/>
     <path d="M 8.5 21.578125 
L 8.5 54.6875 
L 17.484375 54.6875 
L 17.484375 21.921875 
Q 17.484375 14.15625 20.5 10.265625 
Q 23.53125 6.390625 29.59375 6.390625 
Q 36.859375 6.390625 41.078125 11.03125 
Q 45.3125 15.671875 45.3125 23.6875 
L 45.3125 54.6875 
L 54.296875 54.6875 
L 54.296875 0 
L 45.3125 0 
L 45.3125 8.40625 
Q 42.046875 3.421875 37.71875 1 
Q 33.40625 -1.421875 27.6875 -1.421875 
Q 18.265625 -1.421875 13.375 4.4375 
Q 8.5 10.296875 8.5 21.578125 
z
M 31.109375 56 
z
" id="DejaVuSans-117"/>
     <path d="M 37.109375 75.984375 
L 37.109375 68.5 
L 28.515625 68.5 
Q 23.6875 68.5 21.796875 66.546875 
Q 19.921875 64.59375 19.921875 59.515625 
L 19.921875 54.6875 
L 34.71875 54.6875 
L 34.71875 47.703125 
L 19.921875 47.703125 
L 19.921875 0 
L 10.890625 0 
L 10.890625 47.703125 
L 2.296875 47.703125 
L 2.296875 54.6875 
L 10.890625 54.6875 
L 10.890625 58.5 
Q 10.890625 67.625 15.140625 71.796875 
Q 19.390625 75.984375 28.609375 75.984375 
z
" id="DejaVuSans-102"/>
    </defs>
    <g transform="translate(576.24375 37.2)scale(0.12 -0.12)">
     <use xlink:href="#DejaVuSans-68"/>
     <use x="77.001953" xlink:href="#DejaVuSans-105"/>
     <use x="104.785156" xlink:href="#DejaVuSans-115"/>
     <use x="156.884766" xlink:href="#DejaVuSans-116"/>
     <use x="196.09375" xlink:href="#DejaVuSans-114"/>
     <use x="237.207031" xlink:href="#DejaVuSans-105"/>
     <use x="264.990234" xlink:href="#DejaVuSans-98"/>
     <use x="328.466797" xlink:href="#DejaVuSans-117"/>
     <use x="391.845703" xlink:href="#DejaVuSans-116"/>
     <use x="431.054688" xlink:href="#DejaVuSans-105"/>
     <use x="458.837891" xlink:href="#DejaVuSans-111"/>
     <use x="520.019531" xlink:href="#DejaVuSans-110"/>
     <use x="583.398438" xlink:href="#DejaVuSans-32"/>
     <use x="615.185547" xlink:href="#DejaVuSans-111"/>
     <use x="676.367188" xlink:href="#DejaVuSans-102"/>
     <use x="711.572266" xlink:href="#DejaVuSans-32"/>
     <use x="743.359375" xlink:href="#DejaVuSans-101"/>
     <use x="804.882812" xlink:href="#DejaVuSans-108"/>
     <use x="832.666016" xlink:href="#DejaVuSans-101"/>
     <use x="894.189453" xlink:href="#DejaVuSans-118"/>
     <use x="953.369141" xlink:href="#DejaVuSans-97"/>
     <use x="1014.648438" xlink:href="#DejaVuSans-116"/>
     <use x="1053.857422" xlink:href="#DejaVuSans-111"/>
     <use x="1115.039062" xlink:href="#DejaVuSans-114"/>
     <use x="1156.152344" xlink:href="#DejaVuSans-32"/>
     <use x="1187.939453" xlink:href="#DejaVuSans-116"/>
     <use x="1227.148438" xlink:href="#DejaVuSans-105"/>
     <use x="1254.931641" xlink:href="#DejaVuSans-109"/>
     <use x="1352.34375" xlink:href="#DejaVuSans-101"/>
     <use x="1413.867188" xlink:href="#DejaVuSans-115"/>
    </g>
   </g>
   <g id="legend_1">
    <g id="patch_7">
     <path d="M 1068.526563 95.234375 
L 1159.4 95.234375 
Q 1161.4 95.234375 1161.4 93.234375 
L 1161.4 50.2 
Q 1161.4 48.2 1159.4 48.2 
L 1068.526563 48.2 
Q 1066.526563 48.2 1066.526563 50.2 
L 1066.526563 93.234375 
Q 1066.526563 95.234375 1068.526563 95.234375 
z
" style="fill:#ffffff;opacity:0.8;stroke:#cccccc;stroke-linejoin:miter;"/>
    </g>
    <g id="text_21">
     <!-- Method -->
     <defs>
      <path d="M 9.8125 72.90625 
L 24.515625 72.90625 
L 43.109375 23.296875 
L 61.8125 72.90625 
L 76.515625 72.90625 
L 76.515625 0 
L 66.890625 0 
L 66.890625 64.015625 
L 48.09375 14.015625 
L 38.1875 14.015625 
L 19.390625 64.015625 
L 19.390625 0 
L 9.8125 0 
z
" id="DejaVuSans-77"/>
      <path d="M 54.890625 33.015625 
L 54.890625 0 
L 45.90625 0 
L 45.90625 32.71875 
Q 45.90625 40.484375 42.875 44.328125 
Q 39.84375 48.1875 33.796875 48.1875 
Q 26.515625 48.1875 22.3125 43.546875 
Q 18.109375 38.921875 18.109375 30.90625 
L 18.109375 0 
L 9.078125 0 
L 9.078125 75.984375 
L 18.109375 75.984375 
L 18.109375 46.1875 
Q 21.34375 51.125 25.703125 53.5625 
Q 30.078125 56 35.796875 56 
Q 45.21875 56 50.046875 50.171875 
Q 54.890625 44.34375 54.890625 33.015625 
z
" id="DejaVuSans-104"/>
     </defs>
     <g transform="translate(1095.210156 59.798437)scale(0.1 -0.1)">
      <use xlink:href="#DejaVuSans-77"/>
      <use x="86.279297" xlink:href="#DejaVuSans-101"/>
      <use x="147.802734" xlink:href="#DejaVuSans-116"/>
      <use x="187.011719" xlink:href="#DejaVuSans-104"/>
      <use x="250.390625" xlink:href="#DejaVuSans-111"/>
      <use x="311.572266" xlink:href="#DejaVuSans-100"/>
     </g>
    </g>
    <g id="line2d_20">
     <path d="M 1070.526563 70.976562 
L 1090.526563 70.976562 
" style="fill:none;stroke:#1f77b4;stroke-linecap:square;stroke-width:3;"/>
    </g>
    <g id="line2d_21"/>
    <g id="text_22">
     <!-- Simple -->
     <defs>
      <path d="M 53.515625 70.515625 
L 53.515625 60.890625 
Q 47.90625 63.578125 42.921875 64.890625 
Q 37.9375 66.21875 33.296875 66.21875 
Q 25.25 66.21875 20.875 63.09375 
Q 16.5 59.96875 16.5 54.203125 
Q 16.5 49.359375 19.40625 46.890625 
Q 22.3125 44.4375 30.421875 42.921875 
L 36.375 41.703125 
Q 47.40625 39.59375 52.65625 34.296875 
Q 57.90625 29 57.90625 20.125 
Q 57.90625 9.515625 50.796875 4.046875 
Q 43.703125 -1.421875 29.984375 -1.421875 
Q 24.8125 -1.421875 18.96875 -0.25 
Q 13.140625 0.921875 6.890625 3.21875 
L 6.890625 13.375 
Q 12.890625 10.015625 18.65625 8.296875 
Q 24.421875 6.59375 29.984375 6.59375 
Q 38.421875 6.59375 43.015625 9.90625 
Q 47.609375 13.234375 47.609375 19.390625 
Q 47.609375 24.75 44.3125 27.78125 
Q 41.015625 30.8125 33.5 32.328125 
L 27.484375 33.5 
Q 16.453125 35.6875 11.515625 40.375 
Q 6.59375 45.0625 6.59375 53.421875 
Q 6.59375 63.09375 13.40625 68.65625 
Q 20.21875 74.21875 32.171875 74.21875 
Q 37.3125 74.21875 42.625 73.28125 
Q 47.953125 72.359375 53.515625 70.515625 
z
" id="DejaVuSans-83"/>
      <path d="M 18.109375 8.203125 
L 18.109375 -20.796875 
L 9.078125 -20.796875 
L 9.078125 54.6875 
L 18.109375 54.6875 
L 18.109375 46.390625 
Q 20.953125 51.265625 25.265625 53.625 
Q 29.59375 56 35.59375 56 
Q 45.5625 56 51.78125 48.09375 
Q 58.015625 40.1875 58.015625 27.296875 
Q 58.015625 14.40625 51.78125 6.484375 
Q 45.5625 -1.421875 35.59375 -1.421875 
Q 29.59375 -1.421875 25.265625 0.953125 
Q 20.953125 3.328125 18.109375 8.203125 
z
M 48.6875 27.296875 
Q 48.6875 37.203125 44.609375 42.84375 
Q 40.53125 48.484375 33.40625 48.484375 
Q 26.265625 48.484375 22.1875 42.84375 
Q 18.109375 37.203125 18.109375 27.296875 
Q 18.109375 17.390625 22.1875 11.75 
Q 26.265625 6.109375 33.40625 6.109375 
Q 40.53125 6.109375 44.609375 11.75 
Q 48.6875 17.390625 48.6875 27.296875 
z
" id="DejaVuSans-112"/>
     </defs>
     <g transform="translate(1098.526563 74.476562)scale(0.1 -0.1)">
      <use xlink:href="#DejaVuSans-83"/>
      <use x="63.476562" xlink:href="#DejaVuSans-105"/>
      <use x="91.259766" xlink:href="#DejaVuSans-109"/>
      <use x="188.671875" xlink:href="#DejaVuSans-112"/>
      <use x="252.148438" xlink:href="#DejaVuSans-108"/>
      <use x="279.931641" xlink:href="#DejaVuSans-101"/>
     </g>
    </g>
    <g id="line2d_22">
     <path d="M 1070.526563 85.654688 
L 1090.526563 85.654688 
" style="fill:none;stroke:#ff7f0e;stroke-linecap:square;stroke-width:3;"/>
    </g>
    <g id="line2d_23"/>
    <g id="text_23">
     <!-- On-demand -->
     <defs>
      <path d="M 39.40625 66.21875 
Q 28.65625 66.21875 22.328125 58.203125 
Q 16.015625 50.203125 16.015625 36.375 
Q 16.015625 22.609375 22.328125 14.59375 
Q 28.65625 6.59375 39.40625 6.59375 
Q 50.140625 6.59375 56.421875 14.59375 
Q 62.703125 22.609375 62.703125 36.375 
Q 62.703125 50.203125 56.421875 58.203125 
Q 50.140625 66.21875 39.40625 66.21875 
z
M 39.40625 74.21875 
Q 54.734375 74.21875 63.90625 63.9375 
Q 73.09375 53.65625 73.09375 36.375 
Q 73.09375 19.140625 63.90625 8.859375 
Q 54.734375 -1.421875 39.40625 -1.421875 
Q 24.03125 -1.421875 14.8125 8.828125 
Q 5.609375 19.09375 5.609375 36.375 
Q 5.609375 53.65625 14.8125 63.9375 
Q 24.03125 74.21875 39.40625 74.21875 
z
" id="DejaVuSans-79"/>
      <path d="M 4.890625 31.390625 
L 31.203125 31.390625 
L 31.203125 23.390625 
L 4.890625 23.390625 
z
" id="DejaVuSans-45"/>
     </defs>
     <g transform="translate(1098.526563 89.154688)scale(0.1 -0.1)">
      <use xlink:href="#DejaVuSans-79"/>
      <use x="78.710938" xlink:href="#DejaVuSans-110"/>
      <use x="142.089844" xlink:href="#DejaVuSans-45"/>
      <use x="178.173828" xlink:href="#DejaVuSans-100"/>
      <use x="241.650391" xlink:href="#DejaVuSans-101"/>
      <use x="303.173828" xlink:href="#DejaVuSans-109"/>
      <use x="400.585938" xlink:href="#DejaVuSans-97"/>
      <use x="461.865234" xlink:href="#DejaVuSans-110"/>
      <use x="525.244141" xlink:href="#DejaVuSans-100"/>
     </g>
    </g>
   </g>
  </g>
 </g>
 <defs>
  <clipPath id="p2c7c4bd051">
   <rect height="271.8" width="1004.4" x="162" y="43.2"/>
  </clipPath>
 </defs>
</svg>
